<svg width="24" height="24" viewBox="0 0 24 24" fill="none" xmlns="http://www.w3.org/2000/svg">
                                    <path d="M21.505 22.3676L20.0082 20.8565L20.5071 20.3596L21.0061 19.8576L22.5029 21.3636L23.9998 22.8747L23.5008 23.3716L23.0069 23.8787L21.505 22.3676ZM16.4198 17.4134L14.1367 15.1164L14.6457 14.5941C15.3412 13.8842 15.7142 13.372 16.0821 12.6266C16.4853 11.8153 16.707 11.1054 16.8532 10.1622C16.9137 9.77178 16.9238 8.50408 16.8683 8.1187C16.644 6.40063 15.8649 4.8043 14.6508 3.57528C13.4548 2.36521 11.8963 1.58474 10.2157 1.35428C9.51677 1.28564 8.8129 1.28564 8.11402 1.35428C6.63225 1.56038 5.24092 2.19182 4.10663 3.17297C2.97235 4.15413 2.14317 5.44344 1.71838 6.8865C1.48655 7.69783 1.42607 8.16434 1.42607 9.1075C1.42607 9.9594 1.47143 10.3245 1.64782 11.0344C1.91998 12.0942 2.43405 13.1286 3.12452 13.9957C3.38659 14.3355 3.9561 14.9085 4.28873 15.1722C5.07496 15.806 6.03254 16.308 6.95988 16.5818C7.66546 16.7847 8.18457 16.8709 8.94056 16.8861C9.9687 16.9114 10.7801 16.7948 11.6923 16.4753C11.8246 16.4263 11.9591 16.384 12.0955 16.3486C12.1409 16.3435 12.1863 16.4399 12.408 16.9774C12.7104 17.7177 12.7356 17.6112 12.2316 17.7887C11.526 18.0321 10.891 18.1791 10.1854 18.2653C9.50637 18.3261 8.8233 18.3261 8.14426 18.2653C6.4716 18.07 4.88301 17.4215 3.54787 16.3891C2.64572 15.6792 1.8847 14.8121 1.31015 13.8538C0.417357 12.3578 -0.0361066 10.638 0.00224625 8.89344C0.0405991 7.14891 0.569201 5.45097 1.52687 3.99616C2.21922 2.98289 3.10606 2.11921 4.13518 1.45598C5.16429 0.792742 6.31488 0.343351 7.51922 0.134259C8.72355 -0.0748329 9.9573 -0.039401 11.1478 0.238469C12.3383 0.516339 13.4616 1.03103 14.4514 1.75225C15.4413 2.47347 16.2777 3.38663 16.9115 4.43799C17.5452 5.48935 17.9636 6.65765 18.1418 7.87413C18.3201 9.0906 18.2546 10.3307 17.9494 11.5213C17.6441 12.712 17.1052 13.8291 16.3643 14.8071L16.1375 15.091L17.9267 16.8962L19.7159 18.6964L19.2119 19.2034L18.7079 19.7105L16.4198 17.4134Z" fill="black"></path>
                                </svg>